<svg width="16" height="16" viewBox="0 0 16 16" xmlns="http://www.w3.org/2000/svg">
    <g fill="#FFF" fill-rule="evenodd">
        <path d="M6.359 6.911H.552A.552.552 0 0 1 0 6.36V.552C0 .247.247 0 .552 0H6.36c.305 0 .552.247.552.552V6.36a.552.552 0 0 1-.552.552M15.448 6.911H9.64a.552.552 0 0 1-.552-.552V.552c0-.305.247-.552.552-.552h5.807c.305 0 .552.247.552.552V6.36a.552.552 0 0 1-.552.552M6.359 16H.552A.552.552 0 0 1 0 15.448V9.64c0-.305.247-.552.552-.552H6.36c.305 0 .552.247.552.552v5.807A.552.552 0 0 1 6.36 16M15.448 16H9.64a.552.552 0 0 1-.552-.552V9.64c0-.305.247-.552.552-.552h5.807c.305 0 .552.247.552.552v5.807a.552.552 0 0 1-.552.552"/>
    </g>
</svg>
