<svg width="16" height="14" viewBox="0 0 16 14" xmlns="http://www.w3.org/2000/svg" xmlns:xlink="http://www.w3.org/1999/xlink">
    <defs>
        <path id="a" d="M0 0h16v14H0z"/>
    </defs>
    <g fill="none" fill-rule="evenodd">
        <mask id="b" fill="#fff">
            <use xlink:href="#a"/>
        </mask>
        <path d="M16 11.5v1c0 .275-.225.5-.5.5H5v.5c0 .275-.225.5-.5.5h-1a.501.501 0 0 1-.5-.5V13H.5a.502.502 0 0 1-.5-.5v-1c0-.275.225-.5.5-.5H3v-.5c0-.275.225-.5.5-.5h1c.275 0 .5.225.5.5v.5h10.5c.275 0 .5.225.5.5m0-5v1c0 .275-.225.5-.5.5H13v.5c0 .275-.225.5-.5.5h-1a.502.502 0 0 1-.5-.5V8H.5a.502.502 0 0 1-.5-.5v-1c0-.275.225-.5.5-.5H11v-.5c0-.275.225-.5.5-.5h1c.275 0 .5.225.5.5V6h2.5c.275 0 .5.225.5.5m0-5v1c0 .275-.225.5-.5.5H9v.5c0 .275-.225.5-.5.5h-1a.501.501 0 0 1-.5-.5V3H.5a.502.502 0 0 1-.5-.5v-1c0-.275.225-.5.5-.5H7V.5c0-.275.225-.5.5-.5h1c.275 0 .5.225.5.5V1h6.5c.275 0 .5.225.5.5" fill="#FFF" mask="url(#b)"/>
    </g>
</svg>
