<svg width="16" height="16" viewBox="0 0 16 16" xmlns="http://www.w3.org/2000/svg" xmlns:xlink="http://www.w3.org/1999/xlink">
    <defs>
        <path id="a" d="M0 0h16v16H0z"/>
    </defs>
    <g fill="none" fill-rule="evenodd">
        <mask id="b" fill="#fff">
            <use xlink:href="#a"/>
        </mask>
        <path d="M13.757 3.486a1.249 1.249 0 0 1-1.243-1.243c0-.685.558-1.243 1.243-1.243S15 1.558 15 2.243s-.558 1.243-1.243 1.243m-2.114 7.718a1.246 1.246 0 0 1 1.218-.996c.686 0 1.243.557 1.243 1.243 0 .685-.557 1.242-1.243 1.242a1.244 1.244 0 0 1-1.218-1.49M7 13.758C7 14.442 6.442 15 5.757 15a1.244 1.244 0 0 1-1.243-1.243 1.244 1.244 0 0 1 2.118-.881c.227.225.368.537.368.881M3.485 5.298A1.24 1.24 0 0 1 2.243 6.52 1.244 1.244 0 0 1 1 5.277c0-.686.558-1.243 1.243-1.243s1.243.557 1.243 1.243l-.001.021M15.417.735A2.235 2.235 0 0 0 13.757 0a2.233 2.233 0 0 0-1.582.653l-.004.004a2.234 2.234 0 0 0-.274.332c-.241.358-.383.79-.383 1.254 0 .348.08.678.222.972l.002.005a2.237 2.237 0 0 0 .112.203L9.486 5.758a2.686 2.686 0 0 0-3.638.628l-1.41-.649a2.251 2.251 0 0 0-.174-1.433 2.243 2.243 0 1 0-.245 2.341l1.388.639a2.69 2.69 0 0 0 1.155 2.989l-.487 1.264a2.234 2.234 0 0 0-1.75.494 2.243 2.243 0 1 0 2.684-.136l.482-1.254a2.68 2.68 0 0 0 2.392-.721l.91.663a2.235 2.235 0 0 0 .047 1.84 2.248 2.248 0 0 0 2.994 1.05 2.239 2.239 0 0 0 1.27-2.022 2.243 2.243 0 0 0-3.728-1.68l-.92-.672a2.677 2.677 0 0 0-.253-2.644l2.35-2.32.066.04c.333.197.722.31 1.138.31a2.232 2.232 0 0 0 1.721-.805c.326-.389.522-.89.522-1.437 0-.58-.22-1.11-.583-1.508" fill="#FFF" mask="url(#b)"/>
    </g>
</svg>
