<svg width="16" height="12" viewBox="0 0 16 12" xmlns="http://www.w3.org/2000/svg">
    <path d="M12.4 2.8a1.2 1.2 0 1 0 2.4 0 1.2 1.2 0 0 0-2.4 0M16 7.6c0 .22-.18.4-.4.4-.22 0-.4-.18-.4-.4 0-.662-.495-1.2-1.1-1.2h-1c-.137 0-.27.03-.393.083-.187-.213-.4-.4-.635-.56A1.809 1.809 0 0 1 13.1 5.6h1c1.048 0 1.9.898 1.9 2m-4.4-4.8a2 2 0 1 1 3.999-.001A2 2 0 0 1 11.6 2.8m-6.4 0C5.2 1.252 6.453 0 8 0s2.8 1.252 2.8 2.8c0 1.548-1.253 2.8-2.8 2.8a2.799 2.799 0 0 1-2.8-2.8m7.11 4.473c.31.46.49 1.012.49 1.607V10a1.2 1.2 0 0 1-1.2 1.2H4.4A1.2 1.2 0 0 1 3.2 10V8.88c0-.595.18-1.147.49-1.607.518-.768 1.4-1.173 2.308-1.173.835 0 1.042.3 2.002.3.96 0 1.167-.3 2.002-.3.908 0 1.79.405 2.308 1.173M1.2 2.8a1.2 1.2 0 1 0 2.4 0 1.2 1.2 0 0 0-2.4 0m-.8 0a2 2 0 1 1 3.999-.001A2 2 0 0 1 .4 2.8m2.893 3.683A.994.994 0 0 0 2.9 6.4h-1c-.605 0-1.1.538-1.1 1.2 0 .22-.18.4-.4.4-.22 0-.4-.18-.4-.4 0-1.102.853-2 1.9-2h1c.378 0 .73.12 1.028.323-.233.16-.448.347-.635.56" fill="#FFF" fill-rule="evenodd"/>
</svg>
