<svg width="12" height="16" viewBox="0 0 12 16" xmlns="http://www.w3.org/2000/svg">
    <g fill="#FFF" fill-rule="evenodd">
        <path d="M8.084 6.595H11.7V2.978H8.084v3.617zm.85-.852h1.915V3.83H8.934v1.914z"/>
        <path d="M6.807 10.211h2.128V8.084H6.807v2.127zM.851 7.871h2.127V5.744H.851V7.87zm4.255-1.915h1.701V4.255H5.106v1.701zm.85 5.106h.603c-.301.524-.761.876-1.314 1.08a7.197 7.197 0 0 1-.268-1.955c0-1.309.35-2.534.961-3.592h1.507V3.616H4.467v2.979h.538a7.802 7.802 0 0 0-1.143 3.08c-.386-.242-.708-.536-.944-.953h.911v-3.83H0v3.83h2.386a4.02 4.02 0 0 0 1.4 1.848A7.82 7.82 0 0 0 5.75 16h2.17a7.239 7.239 0 0 1-2.384-3.021c.683-.45 1.232-1.08 1.532-1.917h2.717V7.233h-3.83v3.83z"/>
        <path d="M2.127 3.617h1.064V2.553H2.127v1.064zm-.638.638h2.34v-2.34H1.49v2.34zM5.106 2.34h1.701V.638H5.106V2.34zm-.639.638h2.978V0H4.467v2.978z"/>
    </g>
</svg>
