<svg width="16" height="14" viewBox="0 0 16 14" xmlns="http://www.w3.org/2000/svg" xmlns:xlink="http://www.w3.org/1999/xlink">
    <defs>
        <path id="a" d="M0 0h16v12H0z"/>
        <path id="c" d="M0 0h9.125v9.125H0z"/>
    </defs>
    <g fill="none" fill-rule="evenodd">
        <g>
            <mask id="b" fill="#fff">
                <use xlink:href="#a"/>
            </mask>
            <path d="M1.5 11a.5.5 0 0 1-.5-.5v-9a.5.5 0 0 1 .5-.5h4.586l1.707 1.707A1 1 0 0 0 8.5 3h6a.5.5 0 0 1 .5.5v1.355c.373.294.709.632 1 1.007V3.5A1.5 1.5 0 0 0 14.5 2h-6L6.793.293A1 1 0 0 0 6.086 0H1.5A1.5 1.5 0 0 0 0 1.5v9A1.5 1.5 0 0 0 1.5 12h4.741a5.75 5.75 0 0 1-.39-1H1.5z" fill="#FFF" mask="url(#b)"/>
        </g>
        <g transform="translate(6.86 4.847)">
            <mask id="d" fill="#fff">
                <use xlink:href="#c"/>
            </mask>
            <path d="M8.208 5.032c.02-.154.034-.31.034-.47A3.65 3.65 0 0 0 7.85 2.92l-.24.12a.441.441 0 0 0-.17.15l-.36.54a.442.442 0 0 0 0 .49l.331.496c.061.091.154.157.26.183l.537.134zm-1.88.94a.56.56 0 0 0-.163-.397l-.252-.252a.589.589 0 0 0-.417-.172H4.268c-.173-.087-.395-.589-.588-.589-.194 0-.385-.045-.558-.131l-.204-.102a.22.22 0 0 1 .029-.406l.573-.19a.294.294 0 0 1 .286.056l.171.149c.027.023.061.036.097.036h.103c.11 0 .18-.116.132-.213l-.287-.574a.148.148 0 0 1 .03-.172l.182-.177a.147.147 0 0 1 .102-.042h.166c.04 0 .077-.016.104-.043l.147-.147a.147.147 0 0 0 0-.208l-.086-.086a.147.147 0 0 1 0-.208l.19-.19.086-.087a.294.294 0 0 0 0-.416l-.52-.52c-.153.005-.302.02-.45.044v.208c0 .219-.23.36-.425.263l-.442-.221a3.7 3.7 0 0 0-1.899 1.874c.183.271.464.688.637.941.096.141.206.268.332.382l.015.013c.175.158.37.294.582.4.258.13.634.334.898.48.187.104.303.301.303.515v.589c0 .156.062.306.172.416.276.276.448.711.416.943v.504c.27 0 .532-.031.785-.086l.32-.862c.038-.101.06-.206.088-.31a.44.44 0 0 1 .113-.198l.208-.207a.854.854 0 0 0 .253-.607zm2.797-1.41a4.562 4.562 0 1 1-9.125 0 4.562 4.562 0 0 1 9.125 0z" fill="#FFF" mask="url(#d)"/>
        </g>
    </g>
</svg>
