<svg width="16" height="14" viewBox="0 0 16 14" xmlns="http://www.w3.org/2000/svg" xmlns:xlink="http://www.w3.org/1999/xlink">
    <defs>
        <path id="a" d="M0 0h15.965v11.974H0z"/>
        <path id="c" d="M0 0h8.213v9.387H0z"/>
    </defs>
    <g fill="none" fill-rule="evenodd">
        <g>
            <mask id="b" fill="#fff">
                <use xlink:href="#a"/>
            </mask>
            <path d="M1.497 10.976a.499.499 0 0 1-.5-.499v-8.98c0-.276.224-.5.5-.5h4.575l1.704 1.704c.187.187.44.292.706.292h5.986c.276 0 .5.224.5.5V4.96c.584.692.94 1.583.949 2.555l.048.028v-4.05c0-.827-.67-1.497-1.497-1.497H8.482L6.778.292A.998.998 0 0 0 6.072 0H1.497C.67 0 0 .67 0 1.497v8.98c0 .827.67 1.497 1.497 1.497h5.185v-.998H1.497z" fill="#FFF" mask="url(#b)"/>
        </g>
        <g transform="translate(7.787 4.575)">
            <mask id="d" fill="#fff">
                <use xlink:href="#c"/>
            </mask>
            <path d="M5.427 2.787c0-.728-.592-1.32-1.32-1.32-.728 0-1.32.592-1.32 1.32v1.32h2.64v-1.32zm2.786 2.2v3.52a.88.88 0 0 1-.88.88H.88a.88.88 0 0 1-.88-.88v-3.52a.88.88 0 0 1 .88-.88h.44v-1.32A2.79 2.79 0 0 1 4.107 0a2.79 2.79 0 0 1 2.786 2.787v1.32h.44a.88.88 0 0 1 .88.88z" fill="#FFF" mask="url(#d)"/>
        </g>
    </g>
</svg>
