<svg width="16" height="16" viewBox="0 0 16 16" xmlns="http://www.w3.org/2000/svg" xmlns:xlink="http://www.w3.org/1999/xlink">
    <defs>
        <path id="a" d="M0 0h5.427v7.217H0z"/>
    </defs>
    <g fill="none" fill-rule="evenodd">
        <path d="M4.75 15.239a.085.085 0 0 1-.084.084H.76a.085.085 0 0 1-.084-.084V9.544c0-.046.038-.084.084-.084H2.66v-.677H.677A.677.677 0 0 0 0 9.46v5.863c0 .374.303.677.677.677H4.75a.677.677 0 0 0 .677-.677v-.251H4.75v.167z" fill="#FFF"/>
        <g transform="translate(10.573)">
            <mask id="b" fill="#fff">
                <use xlink:href="#a"/>
            </mask>
            <path d="M4.75 0H.677A.677.677 0 0 0 0 .677v.715h.677v-.63C.677.714.715.676.76.676h3.905c.046 0 .084.038.084.084v5.695a.085.085 0 0 1-.084.084H2.769v.677H4.75a.677.677 0 0 0 .677-.677V.677A.677.677 0 0 0 4.75 0" fill="#FFF" mask="url(#b)"/>
        </g>
        <path d="M4.733 13.14h6.535a.142.142 0 0 0 .141-.142V3.466a.142.142 0 0 0-.141-.141H4.733a.142.142 0 0 0-.142.141v9.532c0 .077.064.141.142.141m6.676 1.133H4.591a1.133 1.133 0 0 1-1.132-1.133V3.325c0-.625.507-1.133 1.132-1.133h6.818c.626 0 1.133.508 1.133 1.133v9.814c0 .625-.507 1.133-1.133 1.133" fill="#FFF"/>
    </g>
</svg>
