<?xml version="1.0" standalone="no"?>
<!DOCTYPE svg PUBLIC "-//W3C//DTD SVG 20010904//EN"
 "http://www.w3.org/TR/2001/REC-SVG-20010904/DTD/svg10.dtd">
<svg version="1.0" xmlns="http://www.w3.org/2000/svg"
 width="512.000000pt" height="512.000000pt" viewBox="0 0 512.000000 512.000000"
 preserveAspectRatio="xMidYMid meet">
<metadata>
Created by potrace 1.11, written by Peter Selinger 2001-2013
</metadata>
<g transform="translate(0.000000,512.000000) scale(0.100000,-0.100000)"
fill="#000000" stroke="none">
<path d="M1835 4353 c-391 -47 -694 -163 -970 -371 -88 -67 -258 -235 -330
-327 -270 -344 -413 -806 -377 -1217 31 -343 122 -608 306 -883 113 -170 314
-370 484 -484 282 -186 570 -286 902 -310 74 -5 158 -7 185 -5 212 21 381 48
398 63 4 4 -19 15 -50 25 -333 105 -776 519 -923 864 -18 41 -35 61 -84 96
-255 183 -399 508 -367 829 44 434 326 756 745 849 138 30 329 28 461 -6 106
-28 234 -84 312 -137 70 -49 190 -166 238 -234 59 -83 110 -188 142 -292 24
-79 27 -104 27 -248 1 -169 -4 -196 -60 -347 -33 -86 -111 -216 -174 -289 -28
-32 -50 -63 -50 -71 0 -17 79 -70 152 -102 113 -50 172 -60 343 -60 185 -1
234 10 383 81 94 44 94 44 122 106 102 227 154 557 130 819 -53 568 -330 1038
-793 1349 -242 162 -490 253 -800 294 -107 14 -275 18 -352 8z"/>
<path d="M2965 4344 c-62 -7 -267 -44 -277 -50 -5 -4 19 -16 54 -28 189 -67
387 -205 584 -407 148 -153 226 -261 309 -429 37 -73 53 -95 92 -121 154 -107
292 -310 349 -515 25 -91 30 -300 10 -407 -73 -384 -339 -667 -716 -759 -116
-29 -340 -31 -455 -4 -172 39 -322 119 -449 238 -375 350 -406 890 -75 1303
l70 87 -23 25 c-32 35 -189 108 -278 129 -102 25 -297 25 -400 0 -41 -10 -121
-40 -177 -67 l-101 -49 -41 -102 c-84 -217 -115 -390 -115 -653 0 -187 8 -258
50 -427 93 -372 316 -720 615 -958 618 -492 1495 -527 2154 -85 267 178 472
410 614 694 117 232 174 451 187 713 24 503 -168 992 -534 1354 -265 262 -575
422 -967 500 -78 15 -394 27 -480 18z"/>
</g>
</svg>
