<svg width="16" height="16" viewBox="0 0 16 16" fill="none" xmlns="http://www.w3.org/2000/svg">
<path d="M8.62164 3.95684C8.54164 3.89559 8.44914 3.85059 8.34164 3.82559C8.23539 3.80184 8.12289 3.78809 8.00164 3.78809C7.88039 3.78809 7.76664 3.80059 7.65914 3.82559C7.55039 3.84934 7.45789 3.89434 7.37664 3.95684C7.29664 4.01809 7.23414 4.09934 7.18789 4.20059C7.14289 4.30184 7.11914 4.42934 7.11914 4.58059C7.11914 4.72934 7.14289 4.85434 7.18789 4.95809C7.23414 5.05934 7.29664 5.14309 7.37664 5.20434C7.45664 5.26559 7.55039 5.31059 7.65914 5.33684C7.76664 5.36309 7.88039 5.37684 8.00164 5.37684C8.12164 5.37684 8.23539 5.36309 8.34164 5.33684C8.44914 5.31059 8.54164 5.26559 8.62164 5.20434C8.70164 5.14309 8.76539 5.05934 8.81289 4.95809C8.86039 4.85434 8.88414 4.72934 8.88414 4.58059C8.88414 4.42809 8.86039 4.30059 8.81289 4.20059C8.76539 4.09934 8.70164 4.01809 8.62164 3.95684ZM7.19039 6.11684H8.81164V12.0556H7.19039V6.11684Z" fill="#A10000"/>
<path d="M7.99953 0.0507812C3.61578 0.0507812 0.0507812 3.61578 0.0507812 7.99953C0.0507812 12.382 3.61578 15.9483 7.99828 15.9483C12.3808 15.9483 15.947 12.3833 15.947 7.99953C15.9483 3.61578 12.382 0.0507812 7.99953 0.0507812ZM7.99953 14.8008C4.24953 14.8008 1.19953 11.7495 1.19953 7.99953C1.19953 4.24953 4.24953 1.19828 7.99953 1.19828C11.7495 1.19828 14.8008 4.24953 14.8008 8.00078C14.7995 11.7495 11.7483 14.8008 7.99953 14.8008Z" fill="#A10000"/>
</svg>
