<svg xmlns="http://www.w3.org/2000/svg" xmlns:xlink="http://www.w3.org/1999/xlink" width="200" height="120" viewBox="0 0 200 120">
  <defs>
    <clipPath id="clip-path">
      <rect id="Rectangle_533" data-name="Rectangle 533" width="200" height="120" transform="translate(860 360)" fill="#fff" stroke="#707070" stroke-width="1"/>
    </clipPath>
  </defs>
  <g id="Group_327" data-name="Group 327" transform="translate(-940 -360)">
    <g id="Component_39_1" data-name="Component 39 – 1" transform="translate(940 360)">
      <g id="Mask_Group_1" data-name="Mask Group 1" transform="translate(-860 -360)" clip-path="url(#clip-path)">
        <g id="Group_312" data-name="Group 312" transform="translate(658.105 85.015)">
          <g id="Group_296" data-name="Group 296" transform="translate(239.958 297.047)">
            <path id="Path_521" data-name="Path 521" d="M300.473,297.224l6.285,6.286c.421.421.835.848,1.231,1.282a42.664,42.664,0,0,1,2.3,55.046l-.076-.075a5.778,5.778,0,0,0-8.177,8.164A42.668,42.668,0,0,1,247.7,365.08c-.435-.4-.861-.811-1.283-1.233l-6.285-6.285a43.217,43.217,0,0,0,3.306,2.98,42.666,42.666,0,0,0,57.032-63.318Z" transform="translate(-240.135 -297.224)" fill="#920228"/>
          </g>
          <g id="Group_297" data-name="Group 297" transform="translate(227.462 284.552)">
            <path id="Path_522" data-name="Path 522" d="M298.373,295.238q.99.877,1.943,1.829a42.666,42.666,0,0,1-57.032,63.318,43.193,43.193,0,0,1-3.306-2.979q-.953-.953-1.829-1.943a42.669,42.669,0,0,1,60.225-60.225ZM295.7,307.972a32,32,0,1,0-44.813,44.813l.013.013.006.006a32,32,0,0,0,44.807-44.819Z" transform="translate(-227.482 -284.571)" fill="#ae300f"/>
          </g>
          <g id="Group_298" data-name="Group 298" transform="translate(238.129 295.218)">
            <path id="Path_523" data-name="Path 523" d="M292.908,304.743a31.994,31.994,0,0,1,2.922,3.363,31.992,31.992,0,0,0-44.813,44.813,32,32,0,1,1,41.891-48.176Z" transform="translate(-238.283 -295.372)" fill="#920228"/>
          </g>
          <g id="Group_299" data-name="Group 299" transform="translate(244.412 301.501)">
            <path id="Path_524" data-name="Path 524" d="M295.909,308.185l.013.013a32,32,0,0,1-44.807,44.819l-.006-.006L251.1,353a31.993,31.993,0,0,1,44.813-44.813Z" transform="translate(-244.645 -301.734)" fill="#84dde4"/>
          </g>
          <g id="Group_300" data-name="Group 300" transform="translate(307.676 365.393)">
            <path id="Path_525" data-name="Path 525" d="M326.151,369.42l20.741,20.741a10.222,10.222,0,1,1-14.455,14.456L311.7,383.877A10.215,10.215,0,0,1,317.05,366.6a10.432,10.432,0,0,1,1.872-.176A10.184,10.184,0,0,1,326.151,369.42Z" transform="translate(-308.705 -366.429)" fill="#ae300f"/>
          </g>
          <g id="Group_301" data-name="Group 301" transform="translate(300.174 357.888)">
            <path id="Path_526" data-name="Path 526" d="M311.048,360.6l5.908,5.908a10.2,10.2,0,0,0-8.171,8.171L302.8,368.7l-.007-.006a5.778,5.778,0,1,1,8.177-8.164Z" transform="translate(-301.108 -358.83)" fill="#c3c3c3"/>
          </g>
          <g id="Group_302" data-name="Group 302" transform="translate(225.895 282.985)">
            <path id="Path_527" data-name="Path 527" d="M270.119,371.514a44.055,44.055,0,0,1-27.853-9.921,44.984,44.984,0,0,1-3.427-3.088c-.657-.656-1.293-1.333-1.9-2.013A44.251,44.251,0,0,1,299.4,294.032c.686.609,1.363,1.246,2.014,1.9a44.3,44.3,0,0,1-31.3,75.584Zm.035-85.365a41.07,41.07,0,0,0-30.838,68.247c.558.63,1.151,1.26,1.762,1.871a41.774,41.774,0,0,0,3.184,2.869,41.083,41.083,0,0,0,54.916-60.968c-.606-.605-1.237-1.2-1.873-1.765A40.893,40.893,0,0,0,270.153,286.148Z" transform="translate(-225.895 -282.985)"/>
          </g>
          <g id="Group_303" data-name="Group 303" transform="translate(250.354 307.438)">
            <path id="Path_528" data-name="Path 528" d="M270.388,360.015a32.322,32.322,0,0,1-19.516-6.5.527.527,0,1,1,.635-.841,31.474,31.474,0,0,0,44.068-44.081.528.528,0,0,1,.842-.636,32.489,32.489,0,0,1-26.03,52.06Z" transform="translate(-250.662 -307.745)"/>
          </g>
          <g id="Group_304" data-name="Group 304" transform="translate(237.602 294.692)">
            <path id="Path_529" data-name="Path 529" d="M251.01,353.441a.522.522,0,0,1-.318-.107,32.526,32.526,0,1,1,45.553-45.552.528.528,0,0,1-.843.635,31.471,31.471,0,1,0-47.381,41.2,31.554,31.554,0,0,0,3.306,2.875.528.528,0,0,1-.317.949Z" transform="translate(-237.749 -294.839)"/>
          </g>
          <g id="Group_305" data-name="Group 305" transform="translate(244.661 362.088)">
            <path id="Path_530" data-name="Path 530" d="M276.665,378.757a44.163,44.163,0,0,1-29.977-11.7c-.445-.407-.891-.838-1.328-1.277a1.583,1.583,0,1,1,2.24-2.237c.4.4.813.8,1.228,1.18a41.056,41.056,0,0,0,52.324,2.748,1.582,1.582,0,1,1,1.891,2.537A44.051,44.051,0,0,1,276.665,378.757Z" transform="translate(-244.898 -363.083)"/>
          </g>
          <g id="Group_306" data-name="Group 306" transform="translate(304.999 301.75)">
            <path id="Path_531" data-name="Path 531" d="M311.108,361.479a1.583,1.583,0,0,1-1.248-2.555,40.889,40.889,0,0,0-2.216-53c-.384-.422-.781-.832-1.185-1.234a1.582,1.582,0,1,1,2.236-2.24c.438.439.871.884,1.283,1.335a44.044,44.044,0,0,1,2.38,57.085A1.581,1.581,0,0,1,311.108,361.479Z" transform="translate(-305.993 -301.986)"/>
          </g>
          <g id="Group_307" data-name="Group 307" transform="translate(243.914 301.003)">
            <path id="Path_532" data-name="Path 532" d="M251.133,353.548a.562.562,0,0,1-.4-.164,31.91,31.91,0,0,1-3.855-6.507,32.538,32.538,0,0,1,42.906-42.907,32.251,32.251,0,0,1,6.435,3.789.725.725,0,0,1,.081.075.528.528,0,0,1-.775.716l.387-.359-.389.356a31.469,31.469,0,0,0-44.016,44.127.517.517,0,0,1-.376.874Z" transform="translate(-244.141 -301.23)"/>
          </g>
          <g id="Group_308" data-name="Group 308" transform="translate(296.785 293.579)">
            <path id="Path_533" data-name="Path 533" d="M308.711,306.313a1.566,1.566,0,0,1-1.1-.446,1.744,1.744,0,0,1-.169-.195l-9.013-9.013a1.574,1.574,0,0,1-.3-2.431l.057-.056a1.582,1.582,0,0,1,2.233,0l9.426,9.428a1.581,1.581,0,0,1,.012,2.226A1.605,1.605,0,0,1,308.711,306.313Z" transform="translate(-297.676 -293.713)"/>
          </g>
          <g id="Group_309" data-name="Group 309" transform="translate(236.49 353.902)">
            <path id="Path_534" data-name="Path 534" d="M247.634,367.4a1.579,1.579,0,0,1-1.118-.463l-9.428-9.427a1.582,1.582,0,0,1,0-2.238,1.616,1.616,0,0,1,2.266-.029,1.7,1.7,0,0,1,.23.286l9,9a1.5,1.5,0,0,1,.167.142,1.566,1.566,0,0,1,.036,2.225l-.025.026a1.581,1.581,0,0,1-1.122.474Z" transform="translate(-236.623 -354.794)"/>
          </g>
          <g id="Group_310" data-name="Group 310" transform="translate(298.6 356.306)">
            <path id="Path_535" data-name="Path 535" d="M308.766,376.244a1.577,1.577,0,0,1-1.119-.463l-5.984-5.984a7.36,7.36,0,1,1,10.408-10.409l5.984,5.985a1.582,1.582,0,0,1-2.238,2.237l-5.98-5.98a4.2,4.2,0,1,0-5.939,5.926l5.987,5.987a1.582,1.582,0,0,1-1.119,2.7Z" transform="translate(-299.515 -357.228)"/>
          </g>
          <g id="Group_311" data-name="Group 311" transform="translate(306.095 363.806)">
            <path id="Path_536" data-name="Path 536" d="M339.644,409.168a11.766,11.766,0,0,1-8.346-3.452l-20.741-20.741a11.794,11.794,0,0,1-3.252-10.51,11.8,11.8,0,0,1,19.945-6.183l20.742,20.74a11.8,11.8,0,0,1-8.348,20.146ZM318.9,367.992a8.871,8.871,0,0,0-1.587.149h0a8.613,8.613,0,0,0-6.9,6.9,8.637,8.637,0,0,0,2.378,7.7l20.741,20.741a8.64,8.64,0,0,0,12.218-12.218l-20.742-20.74A8.582,8.582,0,0,0,318.9,367.992Zm-1.873-1.407h0Z" transform="translate(-307.103 -364.823)"/>
          </g>
        </g>
      </g>
    </g>
  </g>
</svg>
