<svg width="17" height="11" viewBox="0 0 17 11" fill="none" xmlns="http://www.w3.org/2000/svg">
<path d="M1.5 10.25L1.5 7C1.5 6.3125 2.03125 5.75 2.75 5.75L13.4375 5.78125L10.7188 8.5C10.4063 8.78125 10.4063 9.25 10.7188 9.53125C11 9.84375 11.4688 9.84375 11.7813 9.53125L15.7813 5.53125C16.0625 5.25 16.0625 4.78125 15.7813 4.46875L11.7813 0.5C11.4688 0.1875 11 0.1875 10.7188 0.5C10.4063 0.78125 10.4063 1.25 10.7188 1.53125L13.4375 4.25L2.75 4.25C1.21875 4.25 3.27835e-07 5.5 2.62268e-07 7L1.20206e-07 10.25C1.01083e-07 10.6875 0.3125 11 0.75 11C1.15625 11 1.5 10.6875 1.5 10.25Z" fill="white"/>
</svg>
