<svg width="48" height="48" viewBox="0 0 48 48" fill="none" xmlns="http://www.w3.org/2000/svg">
<path d="M37 12C42 12 43 13 43 14C43 8.00278 35 -0.00133505 29 1.6703e-07C30.0009 1.6703e-07 31 1 31 6C31 8.82843 31 10.2426 31.8787 11.1213C32.7574 12 34.1716 12 37 12Z" fill="#FF9933"/>
<path d="M6.75736 1.75736C5 3.51472 5 6.34315 5 12V36C5 41.6569 5 44.4853 6.75736 46.2426C8.51472 48 11.3431 48 17 48H31C36.6569 48 39.4853 48 41.2426 46.2426C43 44.4853 43 41.6569 43 36V20C43 18.1308 43 17.1962 42.5981 16.5C42.3348 16.0439 41.9561 15.6652 41.5 15.4019C40.8038 15 39.8692 15 38 15C34.2615 15 32.3923 15 31 14.1962C30.0879 13.6695 29.3305 12.9121 28.8038 12C28 10.6077 28 8.73846 28 5C28 3.13077 28 2.19615 27.5981 1.5C27.3348 1.04394 26.9561 0.665229 26.5 0.401924C25.8038 1.78814e-07 22.8692 1.6703e-07 21 1.6703e-07H17C11.3431 1.6703e-07 8.51472 1.19209e-07 6.75736 1.75736Z" fill="#FF9933"/>
<path d="M19 23C20.1562 23 21.2188 23.625 21.8125 24.625C22.375 25.6562 22.375 26.875 21.8125 27.875C21.2188 28.9062 20.1562 29.5 19 29.5C17.8125 29.5 16.75 28.9062 16.1562 27.875C15.5938 26.875 15.5938 25.6562 16.1562 24.625C16.75 23.625 17.8125 23 19 23ZM29 23C30.1562 23 31.2188 23.625 31.8125 24.625C32.375 25.6562 32.375 26.875 31.8125 27.875C31.2188 28.9062 30.1562 29.5 29 29.5C27.8125 29.5 26.75 28.9062 26.1562 27.875C25.5938 26.875 25.5938 25.6562 26.1562 24.625C26.75 23.625 27.8125 23 29 23ZM14 35C14 32.8125 15.7813 31 18 31H20C22.1875 31 24 32.8125 24 35V35.5C24 36.3438 23.3125 37 22.5 37H15.5C14.6563 37 14 36.3438 14 35.5V35ZM28 37C26.7812 37 25.7188 36.5 24.9688 35.6562C25 35.5938 25 35.5625 25 35.5V35C25 33.9375 24.625 32.9062 24.0312 32.0938C24.2188 31.4688 24.8125 31 25.5 31H32.5C33.3125 31 34 31.6875 34 32.5V33C34 35.2188 32.1875 37 30 37H28Z" fill="white" fill-opacity="0.64"/>
</svg>
