<svg width="48" height="48" viewBox="0 0 48 48" fill="none" xmlns="http://www.w3.org/2000/svg">
<path d="M0 16.7886C0 10.8877 0 7.93718 1.56835 5.91029C1.95703 5.40795 2.40795 4.95703 2.91029 4.56835C4.93718 3 7.88765 3 13.7886 3H15.2574C16.3743 3 16.9328 3 17.4667 3.0772C18.7058 3.25637 19.8803 3.74286 20.8831 4.49233C21.3153 4.81525 21.7102 5.21017 22.5 6C23.2898 6.78983 23.6847 7.18475 24.1169 7.50767C25.1197 8.25714 26.2942 8.74363 27.5333 8.9228C28.0672 9 28.6257 9 29.7426 9H33C40.0711 9 43.6066 9 45.8033 11.1967C48 13.3934 48 16.9289 48 24V30C48 37.0711 48 40.6066 45.8033 42.8033C43.6066 45 40.0711 45 33 45H15C7.92893 45 4.3934 45 2.1967 42.8033C0 40.6066 0 37.0711 0 30V16.7886Z" fill="#FF9933"/>
<path d="M19 19C20.1562 19 21.2188 19.625 21.8125 20.625C22.375 21.6562 22.375 22.875 21.8125 23.875C21.2188 24.9062 20.1562 25.5 19 25.5C17.8125 25.5 16.75 24.9062 16.1562 23.875C15.5938 22.875 15.5938 21.6562 16.1562 20.625C16.75 19.625 17.8125 19 19 19ZM29 19C30.1562 19 31.2188 19.625 31.8125 20.625C32.375 21.6562 32.375 22.875 31.8125 23.875C31.2188 24.9062 30.1562 25.5 29 25.5C27.8125 25.5 26.75 24.9062 26.1562 23.875C25.5938 22.875 25.5938 21.6562 26.1562 20.625C26.75 19.625 27.8125 19 29 19ZM14 31C14 28.8125 15.7813 27 18 27H20C22.1875 27 24 28.8125 24 31V31.5C24 32.3438 23.3125 33 22.5 33H15.5C14.6563 33 14 32.3438 14 31.5V31ZM28 33C26.7812 33 25.7188 32.5 24.9688 31.6562C25 31.5938 25 31.5625 25 31.5V31C25 29.9375 24.625 28.9062 24.0312 28.0938C24.2188 27.4688 24.8125 27 25.5 27H32.5C33.3125 27 34 27.6875 34 28.5V29C34 31.2187 32.1875 33 30 33H28Z" fill="white" fill-opacity="0.64"/>
</svg>
