<svg width="15" height="14" viewBox="0 0 15 14" fill="none" xmlns="http://www.w3.org/2000/svg">
<path d="M14.25 7.5625L8.75 12.8125C8.4375 13.0938 7.96875 13.0938 7.6875 12.7812C7.40625 12.4688 7.40625 12 7.71875 11.7188L11.875 7.75H1.25C0.8125 7.75 0.5 7.4375 0.5 7C0.5 6.59375 0.8125 6.25 1.25 6.25H11.875L7.71875 2.3125C7.40625 2.03125 7.40625 1.53125 7.6875 1.25C7.96875 0.9375 8.46875 0.9375 8.75 1.21875L14.25 6.46875C14.4062 6.625 14.5 6.8125 14.5 7C14.5 7.21875 14.4062 7.40625 14.25 7.5625Z" fill="#131B4A"/>
</svg>
