<svg width="17" height="11" viewBox="0 0 17 11" fill="none" xmlns="http://www.w3.org/2000/svg">
<path d="M15.5 10.25L15.5 7C15.5 6.3125 14.9687 5.75 14.25 5.75L3.5625 5.78125L6.28125 8.5C6.59375 8.78125 6.59375 9.25 6.28125 9.53125C6 9.84375 5.53125 9.84375 5.21875 9.53125L1.21875 5.53125C0.9375 5.25 0.9375 4.78125 1.21875 4.46875L5.21875 0.5C5.53125 0.1875 6 0.1875 6.28125 0.5C6.59375 0.78125 6.59375 1.25 6.28125 1.53125L3.5625 4.25L14.25 4.25C15.7812 4.25 17 5.5 17 7L17 10.25C17 10.6875 16.6875 11 16.25 11C15.8437 11 15.5 10.6875 15.5 10.25Z" fill="white"/>
</svg>
